<?xml version="1.0" encoding="UTF-8" standalone="no"?>
<svg width="179.564mm" height="25.4mm"
 xmlns="http://www.w3.org/2000/svg" xmlns:xlink="http://www.w3.org/1999/xlink"  version="1.2" baseProfile="tiny">
<title>Qt SVG Document</title>
<desc>Generated with Qt</desc>
<defs>
</defs>
<g fill="none" stroke="black" stroke-width="1" fill-rule="evenodd" stroke-linecap="square" stroke-linejoin="bevel" >

<g fill="none" stroke="#000000" stroke-opacity="1" stroke-width="1" stroke-linecap="square" stroke-linejoin="bevel" transform="matrix(1,0,0,1,0,0)"
font-family="Ubuntu" font-size="11" font-weight="400" font-style="normal" 
>
</g>

<g fill="none" stroke="#000000" stroke-opacity="1" stroke-width="1" stroke-linecap="square" stroke-linejoin="bevel" transform="matrix(1,0,0,1,0,0)"
font-family="Ubuntu" font-size="11" font-weight="400" font-style="normal" 
>
</g>

<g fill="none" stroke="#000000" stroke-opacity="1" stroke-width="1" stroke-linecap="square" stroke-linejoin="bevel" transform="matrix(1.99935,0,0,1.99935,-0.00239922,71.9765)"
font-family="Ubuntu" font-size="11" font-weight="400" font-style="normal" 
>
</g>

<g fill="#ffffff" fill-opacity="1" stroke="none" transform="matrix(1.99935,0,0,1.99935,-0.00239922,71.9765)"
font-family="Ubuntu" font-size="11" font-weight="400" font-style="normal" 
>
<rect x="0.0012" y="-36" width="254.583" height="36"/>
</g>

<g fill="none" stroke="#000000" stroke-opacity="1" stroke-width="1" stroke-linecap="square" stroke-linejoin="bevel" transform="matrix(1.99935,0,0,1.99935,-0.00239922,71.9765)"
font-family="Ubuntu" font-size="11" font-weight="400" font-style="normal" 
>
</g>

<g fill="none" stroke="#000000" stroke-opacity="1" stroke-width="1" stroke-linecap="square" stroke-linejoin="bevel" transform="matrix(1.99935,0,0,1.99935,-0.00239922,71.9765)"
font-family="Ubuntu" font-size="11" font-weight="400" font-style="normal" 
>
</g>

<g fill="none" stroke="#000000" stroke-opacity="1" stroke-width="1" stroke-linecap="square" stroke-linejoin="bevel" transform="matrix(1.99935,0,0,1.99935,-0.00239922,71.9765)"
font-family="Ubuntu" font-size="11" font-weight="400" font-style="normal" 
>
</g>

<g fill="none" stroke="#000000" stroke-opacity="1" stroke-width="1" stroke-linecap="square" stroke-linejoin="bevel" transform="matrix(1.99935,0,0,1.99935,-0.00239922,71.9765)"
font-family="Ubuntu" font-size="11" font-weight="400" font-style="normal" 
>
</g>

<g fill="none" stroke="#000000" stroke-opacity="1" stroke-width="1" stroke-linecap="square" stroke-linejoin="round" transform="matrix(1.99935,0,0,1.99935,-0.00239922,71.9765)"
font-family="Ubuntu" font-size="11" font-weight="400" font-style="normal" 
>
<ellipse cx="195.44" cy="-18" rx="58.6444" ry="17.5"/>
</g>

<g fill="none" stroke="#000000" stroke-opacity="1" stroke-width="1" stroke-linecap="square" stroke-linejoin="bevel" transform="matrix(1.99935,0,0,1.99935,-0.00239922,71.9765)"
font-family="Ubuntu" font-size="11" font-weight="400" font-style="normal" 
>
</g>

<g fill="none" stroke="#000000" stroke-opacity="1" stroke-width="1" stroke-linecap="square" stroke-linejoin="bevel" transform="matrix(1.99935,0,0,1.99935,319.617,24.9918)"
font-family="Ubuntu" font-size="11" font-weight="400" font-style="normal" 
>
</g>

<g fill="none" stroke="#000000" stroke-opacity="1" stroke-width="1" stroke-linecap="square" stroke-linejoin="bevel" transform="matrix(1.99935,0,0,1.99935,319.617,24.9918)"
font-family="sans" font-size="11" font-weight="100" font-style="normal" 
>
</g>

<g fill="#000000" fill-opacity="1" stroke="#000000" stroke-opacity="1" stroke-width="1" stroke-linecap="square" stroke-linejoin="round" transform="matrix(1.99935,0,0,1.99935,319.617,24.9918)"
font-family="sans" font-size="11" font-weight="100" font-style="normal" 
>
<path vector-effect="none" fill-rule="nonzero" d="M4.67188,1.90625 L1.03125,11.5156 L0.515625,11.3125 L4.14062,1.70312 L4.67188,1.90625 M11.1406,9.89062 L10.2656,9.89062 L10.2656,8.89062 C9.72396,9.63021 9.06771,10 8.29688,10 C7.66146,10 7.16667,9.78646 6.8125,9.35938 C6.53125,9.00521 6.39062,8.51042 6.39062,7.875 L6.39062,4.40625 L7.34375,4.40625 L7.34375,7.82812 C7.34375,8.74479 7.72396,9.20312 8.48438,9.20312 C9.25521,9.20312 9.82812,8.72917 10.2031,7.78125 L10.2031,4.40625 L11.1406,4.40625 L11.1406,9.89062 M16.1094,4.3125 L15.9375,5.23438 C15.8229,5.21354 15.7135,5.20312 15.6094,5.20312 C15.1927,5.20312 14.8438,5.40104 14.5625,5.79688 C14.2188,6.29688 14.0469,6.73958 14.0469,7.125 L14.0469,9.89062 L13.1094,9.89062 L13.1094,4.40625 L14,4.40625 L13.9531,6.04688 L13.9844,6.04688 C14.3802,4.85938 14.9688,4.26562 15.75,4.26562 C15.875,4.26562 15.9948,4.28125 16.1094,4.3125 M18.5,8.01562 C18.125,8.05729 17.9375,8.20312 17.9375,8.45312 C17.9375,8.78646 18.3698,8.97396 19.2344,9.01562 L19.875,9.04688 C21.2083,9.10938 21.875,9.59375 21.875,10.5 C21.875,10.9688 21.6615,11.3542 21.2344,11.6562 C20.7656,11.9896 20.1146,12.1562 19.2812,12.1562 C18.5312,12.1562 17.9271,12.026 17.4688,11.7656 C17.0312,11.5156 16.8125,11.1719 16.8125,10.7344 C16.8125,10.151 17.2292,9.76562 18.0625,9.57812 L18.0625,9.53125 C17.4062,9.375 17.0781,9.08333 17.0781,8.65625 C17.0781,8.27083 17.3542,7.97396 17.9062,7.76562 C17.2917,7.45312 16.9844,6.94792 16.9844,6.25 C16.9844,5.70833 17.1667,5.26042 17.5312,4.90625 C17.9375,4.5 18.4896,4.29688 19.1875,4.29688 C19.6354,4.29688 20.026,4.39062 20.3594,4.57812 C20.6302,4.23438 21.1146,4.05729 21.8125,4.04688 L21.8125,4.82812 C21.3229,4.83854 21,4.88021 20.8438,4.95312 C21.2292,5.32812 21.4219,5.76562 21.4219,6.26562 C21.4219,6.77604 21.25,7.20312 20.9062,7.54688 C20.5208,7.93229 19.9896,8.125 19.3125,8.125 C19.0312,8.125 18.7604,8.08854 18.5,8.01562 M19.1875,4.98438 C18.8125,4.98438 18.5052,5.10417 18.2656,5.34375 C18.026,5.58333 17.9062,5.88542 17.9062,6.25 C17.9062,6.60417 18.0156,6.89062 18.2344,7.10938 C18.4844,7.34896 18.8125,7.46875 19.2188,7.46875 C19.6042,7.46875 19.9167,7.34896 20.1562,7.10938 C20.3854,6.88021 20.5,6.58333 20.5,6.21875 C20.5,5.875 20.3854,5.58854 20.1562,5.35938 C19.9062,5.10938 19.5833,4.98438 19.1875,4.98438 M19.2188,9.71875 C18.2396,9.71875 17.75,10.0208 17.75,10.625 C17.75,11.2083 18.2656,11.5 19.2969,11.5 C19.9635,11.5 20.4427,11.349 20.7344,11.0469 C20.8906,10.901 20.9688,10.7292 20.9688,10.5312 C20.9688,9.98958 20.3854,9.71875 19.2188,9.71875 M27.7969,11.2969 L22.2969,11.2969 L22.2969,10.7344 L27.7969,10.7344 L27.7969,11.2969 M31.7656,4.3125 L31.5938,5.23438 C31.4792,5.21354 31.3698,5.20312 31.2656,5.20312 C30.849,5.20312 30.5,5.40104 30.2188,5.79688 C29.875,6.29688 29.7031,6.73958 29.7031,7.125 L29.7031,9.89062 L28.7656,9.89062 L28.7656,4.40625 L29.6562,4.40625 L29.6094,6.04688 L29.6406,6.04688 C30.0365,4.85938 30.625,4.26562 31.4062,4.26562 C31.5312,4.26562 31.651,4.28125 31.7656,4.3125 M33.3438,7.26562 C33.375,7.90104 33.5729,8.40104 33.9375,8.76562 C34.3125,9.13021 34.7656,9.3125 35.2969,9.3125 C35.9948,9.3125 36.5469,8.98958 36.9531,8.34375 L37.5625,8.75 C37.0521,9.61458 36.2552,10.0469 35.1719,10.0469 C34.3594,10.0469 33.6927,9.79167 33.1719,9.28125 C32.651,8.75 32.3906,8.05208 32.3906,7.1875 C32.3906,6.26042 32.6667,5.52083 33.2188,4.96875 C33.7083,4.47917 34.3177,4.23438 35.0469,4.23438 C35.7448,4.23438 36.3229,4.46354 36.7812,4.92188 C37.3021,5.45312 37.5625,6.16146 37.5625,7.04688 L37.5625,7.26562 L33.3438,7.26562 M36.5938,6.5625 C36.5417,6.07292 36.3698,5.68229 36.0781,5.39062 C35.776,5.09896 35.4271,4.95312 35.0312,4.95312 C34.5625,4.95312 34.1667,5.15104 33.8438,5.54688 C33.6146,5.81771 33.4635,6.15625 33.3906,6.5625 L36.5938,6.5625 M42.3281,2.0625 L41.9375,2.71875 C41.6667,2.51042 41.3854,2.40625 41.0938,2.40625 C40.4583,2.40625 40.1406,2.83333 40.1406,3.6875 L40.1406,4.40625 L41.6406,4.40625 L41.6406,5.07812 L40.1406,5.07812 L40.1406,9.89062 L39.2031,9.89062 L39.2031,5.07812 L38.3125,5.07812 L38.3125,4.40625 L39.2031,4.40625 L39.2031,3.70312 C39.2031,3.09896 39.349,2.63021 39.6406,2.29688 C39.9948,1.88021 40.4635,1.67188 41.0469,1.67188 C41.5156,1.67188 41.9427,1.80208 42.3281,2.0625 M43.4062,9.89062 L42.4688,9.89062 L42.4688,1.76562 L43.4062,1.76562 L43.4062,9.89062 M45.9219,7.26562 C45.9531,7.90104 46.151,8.40104 46.5156,8.76562 C46.8906,9.13021 47.3438,9.3125 47.875,9.3125 C48.5729,9.3125 49.125,8.98958 49.5312,8.34375 L50.1406,8.75 C49.6302,9.61458 48.8333,10.0469 47.75,10.0469 C46.9375,10.0469 46.2708,9.79167 45.75,9.28125 C45.2292,8.75 44.9688,8.05208 44.9688,7.1875 C44.9688,6.26042 45.2448,5.52083 45.7969,4.96875 C46.2865,4.47917 46.8958,4.23438 47.625,4.23438 C48.3229,4.23438 48.901,4.46354 49.3594,4.92188 C49.8802,5.45312 50.1406,6.16146 50.1406,7.04688 L50.1406,7.26562 L45.9219,7.26562 M49.1719,6.5625 C49.1198,6.07292 48.9479,5.68229 48.6562,5.39062 C48.3542,5.09896 48.0052,4.95312 47.6094,4.95312 C47.1406,4.95312 46.7448,5.15104 46.4219,5.54688 C46.1927,5.81771 46.0417,6.15625 45.9688,6.5625 L49.1719,6.5625 M56.3125,8.65625 C55.8125,9.58333 55.026,10.0469 53.9531,10.0469 C53.1823,10.0469 52.5469,9.79688 52.0469,9.29688 C51.4948,8.74479 51.2188,8.02604 51.2188,7.14062 C51.2188,6.26562 51.4948,5.55208 52.0469,5 C52.5365,4.5 53.1615,4.25 53.9219,4.25 C54.9844,4.25 55.7448,4.71354 56.2031,5.64062 L55.4375,6.03125 C55.1146,5.35417 54.6198,5.01562 53.9531,5.01562 C53.5156,5.01562 53.1354,5.17708 52.8125,5.5 C52.4062,5.90625 52.2031,6.45833 52.2031,7.15625 C52.2031,7.82292 52.3958,8.35417 52.7812,8.75 C53.125,9.09375 53.5469,9.26562 54.0469,9.26562 C54.724,9.26562 55.2344,8.92708 55.5781,8.25 L56.3125,8.65625 M60.3125,9.59375 C59.9062,9.875 59.4896,10.0156 59.0625,10.0156 C58.2083,10.0156 57.7812,9.53646 57.7812,8.57812 L57.7812,5.07812 L57.0312,5.07812 L57.0312,4.40625 L57.7812,4.40625 L57.7812,3.1875 L58.6875,2.73438 L58.6875,4.40625 L60.2031,4.40625 L60.2031,5.07812 L58.6875,5.07812 L58.6875,8.4375 C58.6875,9 58.875,9.28125 59.25,9.28125 C59.5104,9.28125 59.7552,9.18229 59.9844,8.98438 L60.3125,9.59375 M63.75,4.26562 C64.5208,4.26562 65.1719,4.52083 65.7031,5.03125 C66.2448,5.58333 66.5156,6.30208 66.5156,7.1875 C66.5156,8.04167 66.25,8.73958 65.7188,9.28125 C65.1979,9.79167 64.5417,10.0469 63.75,10.0469 C62.9583,10.0469 62.3073,9.79167 61.7969,9.28125 C61.2552,8.75 60.9844,8.04167 60.9844,7.15625 C60.9844,6.29167 61.2604,5.58333 61.8125,5.03125 C62.3229,4.52083 62.9688,4.26562 63.75,4.26562 M63.75,4.98438 C63.2917,4.98438 62.901,5.15104 62.5781,5.48438 C62.1823,5.88021 61.9844,6.4375 61.9844,7.15625 C61.9844,7.875 62.1823,8.43229 62.5781,8.82812 C62.901,9.15104 63.2917,9.3125 63.75,9.3125 C64.2188,9.3125 64.6146,9.14583 64.9375,8.8125 C65.3333,8.41667 65.5312,7.85417 65.5312,7.125 C65.5312,6.4375 65.3281,5.89062 64.9219,5.48438 C64.599,5.15104 64.2083,4.98438 63.75,4.98438 M71.0625,4.3125 L70.8906,5.23438 C70.776,5.21354 70.6667,5.20312 70.5625,5.20312 C70.1458,5.20312 69.7969,5.40104 69.5156,5.79688 C69.1719,6.29688 69,6.73958 69,7.125 L69,9.89062 L68.0625,9.89062 L68.0625,4.40625 L68.9531,4.40625 L68.9062,6.04688 L68.9375,6.04688 C69.3333,4.85938 69.9219,4.26562 70.7031,4.26562 C70.8281,4.26562 70.9479,4.28125 71.0625,4.3125 "/>
</g>

<g fill="none" stroke="#000000" stroke-opacity="1" stroke-width="1" stroke-linecap="square" stroke-linejoin="bevel" transform="matrix(1.99935,0,0,1.99935,319.617,24.9918)"
font-family="sans" font-size="11" font-weight="100" font-style="normal" 
>
</g>

<g fill="none" stroke="#000000" stroke-opacity="1" stroke-width="1" stroke-linecap="square" stroke-linejoin="bevel" transform="matrix(1.99935,0,0,1.99935,319.617,24.9918)"
font-family="Ubuntu" font-size="11" font-weight="400" font-style="normal" 
>
</g>

<g fill="none" stroke="#000000" stroke-opacity="1" stroke-width="1" stroke-linecap="square" stroke-linejoin="bevel" transform="matrix(1.99935,0,0,1.99935,-0.00239922,71.9765)"
font-family="Ubuntu" font-size="11" font-weight="400" font-style="normal" 
>
</g>

<g fill="none" stroke="#000000" stroke-opacity="1" stroke-width="1" stroke-linecap="square" stroke-linejoin="bevel" transform="matrix(1.99935,0,0,1.99935,-0.00239922,71.9765)"
font-family="Ubuntu" font-size="11" font-weight="400" font-style="normal" 
>
</g>

<g fill="none" stroke="#000000" stroke-opacity="1" stroke-width="1" stroke-linecap="square" stroke-linejoin="bevel" transform="matrix(1.99935,0,0,1.99935,-0.00239922,71.9765)"
font-family="Ubuntu" font-size="11" font-weight="400" font-style="normal" 
>
</g>

<g fill="none" stroke="#000000" stroke-opacity="1" stroke-width="1" stroke-linecap="square" stroke-linejoin="round" transform="matrix(1.99935,0,0,1.99935,-0.00239922,71.9765)"
font-family="Ubuntu" font-size="11" font-weight="400" font-style="normal" 
>
<ellipse cx="46.146" cy="-18" rx="45.6448" ry="17.5"/>
</g>

<g fill="none" stroke="#000000" stroke-opacity="1" stroke-width="1" stroke-linecap="square" stroke-linejoin="bevel" transform="matrix(1.99935,0,0,1.99935,-0.00239922,71.9765)"
font-family="Ubuntu" font-size="11" font-weight="400" font-style="normal" 
>
</g>

<g fill="none" stroke="#000000" stroke-opacity="1" stroke-width="1" stroke-linecap="square" stroke-linejoin="bevel" transform="matrix(1.99935,0,0,1.99935,38.0896,24.9918)"
font-family="Ubuntu" font-size="11" font-weight="400" font-style="normal" 
>
</g>

<g fill="none" stroke="#000000" stroke-opacity="1" stroke-width="1" stroke-linecap="square" stroke-linejoin="bevel" transform="matrix(1.99935,0,0,1.99935,38.0896,24.9918)"
font-family="sans" font-size="11" font-weight="100" font-style="normal" 
>
</g>

<g fill="#000000" fill-opacity="1" stroke="#000000" stroke-opacity="1" stroke-width="1" stroke-linecap="square" stroke-linejoin="round" transform="matrix(1.99935,0,0,1.99935,38.0896,24.9918)"
font-family="sans" font-size="11" font-weight="100" font-style="normal" 
>
<path vector-effect="none" fill-rule="nonzero" d="M4.67188,1.90625 L1.03125,11.5156 L0.515625,11.3125 L4.14062,1.70312 L4.67188,1.90625 M11.1406,9.89062 L10.2656,9.89062 L10.2656,8.89062 C9.72396,9.63021 9.06771,10 8.29688,10 C7.66146,10 7.16667,9.78646 6.8125,9.35938 C6.53125,9.00521 6.39062,8.51042 6.39062,7.875 L6.39062,4.40625 L7.34375,4.40625 L7.34375,7.82812 C7.34375,8.74479 7.72396,9.20312 8.48438,9.20312 C9.25521,9.20312 9.82812,8.72917 10.2031,7.78125 L10.2031,4.40625 L11.1406,4.40625 L11.1406,9.89062 M16.1094,4.3125 L15.9375,5.23438 C15.8229,5.21354 15.7135,5.20312 15.6094,5.20312 C15.1927,5.20312 14.8438,5.40104 14.5625,5.79688 C14.2188,6.29688 14.0469,6.73958 14.0469,7.125 L14.0469,9.89062 L13.1094,9.89062 L13.1094,4.40625 L14,4.40625 L13.9531,6.04688 L13.9844,6.04688 C14.3802,4.85938 14.9688,4.26562 15.75,4.26562 C15.875,4.26562 15.9948,4.28125 16.1094,4.3125 M18.5,8.01562 C18.125,8.05729 17.9375,8.20312 17.9375,8.45312 C17.9375,8.78646 18.3698,8.97396 19.2344,9.01562 L19.875,9.04688 C21.2083,9.10938 21.875,9.59375 21.875,10.5 C21.875,10.9688 21.6615,11.3542 21.2344,11.6562 C20.7656,11.9896 20.1146,12.1562 19.2812,12.1562 C18.5312,12.1562 17.9271,12.026 17.4688,11.7656 C17.0312,11.5156 16.8125,11.1719 16.8125,10.7344 C16.8125,10.151 17.2292,9.76562 18.0625,9.57812 L18.0625,9.53125 C17.4062,9.375 17.0781,9.08333 17.0781,8.65625 C17.0781,8.27083 17.3542,7.97396 17.9062,7.76562 C17.2917,7.45312 16.9844,6.94792 16.9844,6.25 C16.9844,5.70833 17.1667,5.26042 17.5312,4.90625 C17.9375,4.5 18.4896,4.29688 19.1875,4.29688 C19.6354,4.29688 20.026,4.39062 20.3594,4.57812 C20.6302,4.23438 21.1146,4.05729 21.8125,4.04688 L21.8125,4.82812 C21.3229,4.83854 21,4.88021 20.8438,4.95312 C21.2292,5.32812 21.4219,5.76562 21.4219,6.26562 C21.4219,6.77604 21.25,7.20312 20.9062,7.54688 C20.5208,7.93229 19.9896,8.125 19.3125,8.125 C19.0312,8.125 18.7604,8.08854 18.5,8.01562 M19.1875,4.98438 C18.8125,4.98438 18.5052,5.10417 18.2656,5.34375 C18.026,5.58333 17.9062,5.88542 17.9062,6.25 C17.9062,6.60417 18.0156,6.89062 18.2344,7.10938 C18.4844,7.34896 18.8125,7.46875 19.2188,7.46875 C19.6042,7.46875 19.9167,7.34896 20.1562,7.10938 C20.3854,6.88021 20.5,6.58333 20.5,6.21875 C20.5,5.875 20.3854,5.58854 20.1562,5.35938 C19.9062,5.10938 19.5833,4.98438 19.1875,4.98438 M19.2188,9.71875 C18.2396,9.71875 17.75,10.0208 17.75,10.625 C17.75,11.2083 18.2656,11.5 19.2969,11.5 C19.9635,11.5 20.4427,11.349 20.7344,11.0469 C20.8906,10.901 20.9688,10.7292 20.9688,10.5312 C20.9688,9.98958 20.3854,9.71875 19.2188,9.71875 M27.7969,11.2969 L22.2969,11.2969 L22.2969,10.7344 L27.7969,10.7344 L27.7969,11.2969 M33.5156,9.89062 L32.5781,9.89062 L32.5781,6.5 C32.5781,5.5625 32.1927,5.09375 31.4219,5.09375 C30.6406,5.09375 30.0677,5.5625 29.7031,6.5 L29.7031,9.89062 L28.7656,9.89062 L28.7656,4.40625 L29.6406,4.40625 L29.6406,5.40625 C30.1615,4.67708 30.8177,4.3125 31.6094,4.3125 C32.8802,4.3125 33.5156,5.02083 33.5156,6.4375 L33.5156,9.89062 M37.7344,4.26562 C38.5052,4.26562 39.1562,4.52083 39.6875,5.03125 C40.2292,5.58333 40.5,6.30208 40.5,7.1875 C40.5,8.04167 40.2344,8.73958 39.7031,9.28125 C39.1823,9.79167 38.526,10.0469 37.7344,10.0469 C36.9427,10.0469 36.2917,9.79167 35.7812,9.28125 C35.2396,8.75 34.9688,8.04167 34.9688,7.15625 C34.9688,6.29167 35.2448,5.58333 35.7969,5.03125 C36.3073,4.52083 36.9531,4.26562 37.7344,4.26562 M37.7344,4.98438 C37.276,4.98438 36.8854,5.15104 36.5625,5.48438 C36.1667,5.88021 35.9688,6.4375 35.9688,7.15625 C35.9688,7.875 36.1667,8.43229 36.5625,8.82812 C36.8854,9.15104 37.276,9.3125 37.7344,9.3125 C38.2031,9.3125 38.599,9.14583 38.9219,8.8125 C39.3177,8.41667 39.5156,7.85417 39.5156,7.125 C39.5156,6.4375 39.3125,5.89062 38.9062,5.48438 C38.5833,5.15104 38.1927,4.98438 37.7344,4.98438 M46.9062,9.89062 L46.0469,9.89062 L46.0469,8.9375 C45.526,9.67708 44.875,10.0469 44.0938,10.0469 C43.4375,10.0469 42.8854,9.81771 42.4375,9.35938 C41.8854,8.81771 41.6094,8.07812 41.6094,7.14062 C41.6094,6.22396 41.875,5.49479 42.4062,4.95312 C42.8646,4.49479 43.4271,4.26562 44.0938,4.26562 C44.8125,4.26562 45.4375,4.56771 45.9688,5.17188 L45.9688,1.76562 L46.9062,1.76562 L46.9062,9.89062 M45.9688,7.76562 L45.9688,6.39062 C45.9688,6.03646 45.7448,5.6875 45.2969,5.34375 C44.9844,5.11458 44.6406,5 44.2656,5 C43.8385,5 43.4792,5.14583 43.1875,5.4375 C42.8021,5.83333 42.6094,6.39062 42.6094,7.10938 C42.6094,7.76562 42.7708,8.29688 43.0938,8.70312 C43.3958,9.09896 43.7812,9.29688 44.25,9.29688 C44.7917,9.29688 45.2552,9.03125 45.6406,8.5 C45.8594,8.19792 45.9688,7.95312 45.9688,7.76562 M49.4219,7.26562 C49.4531,7.90104 49.651,8.40104 50.0156,8.76562 C50.3906,9.13021 50.8438,9.3125 51.375,9.3125 C52.0729,9.3125 52.625,8.98958 53.0312,8.34375 L53.6406,8.75 C53.1302,9.61458 52.3333,10.0469 51.25,10.0469 C50.4375,10.0469 49.7708,9.79167 49.25,9.28125 C48.7292,8.75 48.4688,8.05208 48.4688,7.1875 C48.4688,6.26042 48.7448,5.52083 49.2969,4.96875 C49.7865,4.47917 50.3958,4.23438 51.125,4.23438 C51.8229,4.23438 52.401,4.46354 52.8594,4.92188 C53.3802,5.45312 53.6406,6.16146 53.6406,7.04688 L53.6406,7.26562 L49.4219,7.26562 M52.6719,6.5625 C52.6198,6.07292 52.4479,5.68229 52.1562,5.39062 C51.8542,5.09896 51.5052,4.95312 51.1094,4.95312 C50.6406,4.95312 50.2448,5.15104 49.9219,5.54688 C49.6927,5.81771 49.5417,6.15625 49.4688,6.5625 L52.6719,6.5625"/>
</g>

<g fill="none" stroke="#000000" stroke-opacity="1" stroke-width="1" stroke-linecap="square" stroke-linejoin="bevel" transform="matrix(1.99935,0,0,1.99935,38.0896,24.9918)"
font-family="sans" font-size="11" font-weight="100" font-style="normal" 
>
</g>

<g fill="none" stroke="#000000" stroke-opacity="1" stroke-width="1" stroke-linecap="square" stroke-linejoin="bevel" transform="matrix(1.99935,0,0,1.99935,38.0896,24.9918)"
font-family="Ubuntu" font-size="11" font-weight="400" font-style="normal" 
>
</g>

<g fill="none" stroke="#000000" stroke-opacity="1" stroke-width="1" stroke-linecap="square" stroke-linejoin="bevel" transform="matrix(1.99935,0,0,1.99935,-0.00239922,71.9765)"
font-family="Ubuntu" font-size="11" font-weight="400" font-style="normal" 
>
</g>

<g fill="none" stroke="#000000" stroke-opacity="1" stroke-width="1" stroke-linecap="square" stroke-linejoin="bevel" transform="matrix(1.99935,0,0,1.99935,-0.00239922,71.9765)"
font-family="Ubuntu" font-size="11" font-weight="400" font-style="normal" 
>
</g>

<g fill="none" stroke="#000000" stroke-opacity="1" stroke-width="1" stroke-linecap="square" stroke-linejoin="bevel" transform="matrix(1.99935,0,0,1.99935,-0.00239922,71.9765)"
font-family="Ubuntu" font-size="11" font-weight="400" font-style="normal" 
>
</g>

<g fill="none" stroke="#000000" stroke-opacity="1" stroke-width="1" stroke-linecap="square" stroke-linejoin="round" transform="matrix(1.99935,0,0,1.99935,-0.00239922,71.9765)"
font-family="Ubuntu" font-size="11" font-weight="400" font-style="normal" 
>
<path vector-effect="none" fill-rule="evenodd" d="M92.54,-18 C103.09,-18 114.55,-18 125.85,-18 "/>
</g>

<g fill="none" stroke="#000000" stroke-opacity="1" stroke-width="1" stroke-linecap="square" stroke-linejoin="bevel" transform="matrix(1.99935,0,0,1.99935,-0.00239922,71.9765)"
font-family="Ubuntu" font-size="11" font-weight="400" font-style="normal" 
>
</g>

<g fill="none" stroke="#000000" stroke-opacity="1" stroke-width="1" stroke-linecap="square" stroke-linejoin="bevel" transform="matrix(1.99935,0,0,1.99935,199.278,9.99673)"
font-family="Ubuntu" font-size="11" font-weight="400" font-style="normal" 
>
</g>

<g fill="none" stroke="#000000" stroke-opacity="1" stroke-width="1" stroke-linecap="square" stroke-linejoin="bevel" transform="matrix(1.99935,0,0,1.99935,199.278,9.99673)"
font-family="sans" font-size="11" font-weight="100" font-style="normal" 
>
</g>

<g fill="#000000" fill-opacity="1" stroke="#000000" stroke-opacity="1" stroke-width="1" stroke-linecap="square" stroke-linejoin="round" transform="matrix(1.99935,0,0,1.99935,199.278,9.99673)"
font-family="sans" font-size="11" font-weight="100" font-style="normal" 
>
<path vector-effect="none" fill-rule="nonzero" d="M4.67188,1.90625 L1.03125,11.5156 L0.515625,11.3125 L4.14062,1.70312 L4.67188,1.90625 M9.34375,5.625 C9,5.1875 8.56771,4.96875 8.04688,4.96875 C7.36979,4.96875 7.03125,5.22917 7.03125,5.75 C7.03125,6.11458 7.39583,6.41667 8.125,6.65625 L8.48438,6.78125 C9.53646,7.11458 10.0625,7.67708 10.0625,8.46875 C10.0625,8.98958 9.84375,9.40104 9.40625,9.70312 C9.0625,9.93229 8.61979,10.0469 8.07812,10.0469 C7.23438,10.0469 6.52083,9.74479 5.9375,9.14062 L6.53125,8.59375 C6.98958,9.07292 7.51562,9.3125 8.10938,9.3125 C8.80729,9.3125 9.15625,9.04167 9.15625,8.5 C9.15625,8.08333 8.77083,7.73438 8,7.45312 L7.625,7.32812 C6.64583,6.98438 6.15625,6.48438 6.15625,5.82812 C6.15625,5.40104 6.29688,5.04688 6.57812,4.76562 C6.92188,4.42188 7.39583,4.25 8,4.25 C8.80208,4.25 9.46354,4.52604 9.98438,5.07812 L9.34375,5.625 M16.2031,8.65625 C15.7031,9.58333 14.9167,10.0469 13.8438,10.0469 C13.0729,10.0469 12.4375,9.79688 11.9375,9.29688 C11.3854,8.74479 11.1094,8.02604 11.1094,7.14062 C11.1094,6.26562 11.3854,5.55208 11.9375,5 C12.4271,4.5 13.0521,4.25 13.8125,4.25 C14.875,4.25 15.6354,4.71354 16.0938,5.64062 L15.3281,6.03125 C15.0052,5.35417 14.5104,5.01562 13.8438,5.01562 C13.4062,5.01562 13.026,5.17708 12.7031,5.5 C12.2969,5.90625 12.0938,6.45833 12.0938,7.15625 C12.0938,7.82292 12.2865,8.35417 12.6719,8.75 C13.0156,9.09375 13.4375,9.26562 13.9375,9.26562 C14.6146,9.26562 15.125,8.92708 15.4688,8.25 L16.2031,8.65625 M21.9688,9.89062 L21.1406,9.89062 C21.0156,9.61979 20.9323,9.33854 20.8906,9.04688 L20.8594,9.04688 C20.4427,9.71354 19.8229,10.0469 19,10.0469 C18.4375,10.0469 17.974,9.86458 17.6094,9.5 C17.2969,9.1875 17.1406,8.80208 17.1406,8.34375 C17.1406,7.21875 18.1198,6.625 20.0781,6.5625 L20.8125,6.54688 L20.8125,6.26562 C20.8125,5.88021 20.6979,5.57812 20.4688,5.35938 C20.25,5.13021 19.9583,5.01562 19.5938,5.01562 C18.9792,5.01562 18.5208,5.3125 18.2188,5.90625 L17.3906,5.53125 C17.901,4.69792 18.6458,4.28125 19.625,4.28125 C20.2917,4.28125 20.8073,4.46875 21.1719,4.84375 C21.5052,5.17708 21.6719,5.65104 21.6719,6.26562 L21.6719,8.28125 C21.6719,8.96875 21.7708,9.50521 21.9688,9.89062 M20.8281,7.20312 L20.2188,7.21875 C18.8021,7.25 18.0938,7.63021 18.0938,8.35938 C18.0938,8.61979 18.1823,8.83333 18.3594,9 C18.5573,9.20833 18.8281,9.3125 19.1719,9.3125 C19.6406,9.3125 20.0469,9.14062 20.3906,8.79688 C20.6823,8.48438 20.8281,8.11458 20.8281,7.6875 L20.8281,7.20312 M28.3125,9.89062 L27.375,9.89062 L27.375,6.5 C27.375,5.5625 26.9896,5.09375 26.2188,5.09375 C25.4375,5.09375 24.8646,5.5625 24.5,6.5 L24.5,9.89062 L23.5625,9.89062 L23.5625,4.40625 L24.4375,4.40625 L24.4375,5.40625 C24.9583,4.67708 25.6146,4.3125 26.4062,4.3125 C27.6771,4.3125 28.3125,5.02083 28.3125,6.4375 L28.3125,9.89062"/>
</g>

<g fill="none" stroke="#000000" stroke-opacity="1" stroke-width="1" stroke-linecap="square" stroke-linejoin="bevel" transform="matrix(1.99935,0,0,1.99935,199.278,9.99673)"
font-family="sans" font-size="11" font-weight="100" font-style="normal" 
>
</g>

<g fill="none" stroke="#000000" stroke-opacity="1" stroke-width="1" stroke-linecap="square" stroke-linejoin="bevel" transform="matrix(1.99935,0,0,1.99935,199.278,9.99673)"
font-family="Ubuntu" font-size="11" font-weight="400" font-style="normal" 
>
</g>

<g fill="none" stroke="#000000" stroke-opacity="1" stroke-width="1" stroke-linecap="square" stroke-linejoin="bevel" transform="matrix(1.99935,0,0,1.99935,-0.00239922,71.9765)"
font-family="Ubuntu" font-size="11" font-weight="400" font-style="normal" 
>
</g>

<g fill="#000000" fill-opacity="1" stroke="#000000" stroke-opacity="1" stroke-width="1" stroke-linecap="square" stroke-linejoin="round" transform="matrix(1.99935,0,0,1.99935,-0.00239922,71.9765)"
font-family="Ubuntu" font-size="11" font-weight="400" font-style="normal" 
>
<path vector-effect="none" fill-rule="evenodd" d="M125.85,-18 L125.85,-14.395 L136.15,-18 L125.85,-21.605 L125.85,-18"/>
</g>

<g fill="none" stroke="#000000" stroke-opacity="1" stroke-width="1" stroke-linecap="square" stroke-linejoin="bevel" transform="matrix(1.99935,0,0,1.99935,-0.00239922,71.9765)"
font-family="Ubuntu" font-size="11" font-weight="400" font-style="normal" 
>
</g>

<g fill="none" stroke="#000000" stroke-opacity="1" stroke-width="1" stroke-linecap="square" stroke-linejoin="bevel" transform="matrix(1,0,0,1,0,0)"
font-family="Ubuntu" font-size="11" font-weight="400" font-style="normal" 
>
</g>
</g>
</svg>
